<?xml version="1.0" encoding="UTF-8" standalone="no"?>
<!-- Created with Inkscape (http://www.inkscape.org/) -->
<svg xmlns:dc="http://purl.org/dc/elements/1.1/" xmlns:cc="http://creativecommons.org/ns#" xmlns:rdf="http://www.w3.org/1999/02/22-rdf-syntax-ns#" xmlns:svg="http://www.w3.org/2000/svg" xmlns="http://www.w3.org/2000/svg" version="1.1" width="225.64571" height="131.98207" viewBox="0 0 225.64571 131.98207" id="svg2" xml:space="preserve"><metadata id="metadata8"><rdf:RDF><cc:Work rdf:about=""><dc:format>image/svg+xml</dc:format><dc:type rdf:resource="http://purl.org/dc/dcmitype/StillImage"/><dc:title/></cc:Work></rdf:RDF></metadata><defs id="defs6"/><g transform="matrix(1.25,0,0,-1.25,197.84196,260.31165)" id="g10"><g transform="scale(0.1,0.1)" id="g12"><g transform="matrix(1.8756763,0,0,1.8756763,1555.9138,-2132.8415)" id="g3023"><g transform="translate(-1781.0701,740.185)" id="g3017"><path d="m 441.31342,-1507.1829 186.9064,0 218.89244,374.977 -186.9064,0 z" transform="scale(1,-1)" id="rect3798" style="fill:#00549a;fill-opacity:1;stroke:none"/><path d="m 410.91623,1157.5234 24.551,-37.985 c 218.292,12.278 393.242,191.052 410.122,315.742 l -27.63,34.53 c -35.68,-170.34 -254.738,-301.932 -407.043,-312.287" id="path54" style="fill:#ecba0b;fill-opacity:1;fill-rule:evenodd;stroke:none"/><path d="m 469.99423,1392.7004 20.332,-41.05 c -24.168,-22.26 -36.062,-37.22 -52.941,-65.23 -22.637,-37.59 -31.844,-62.15 -38.746,-105.878 l -30.309,49.108 c 9.973,31.45 17.645,48.72 34.145,77.49 21.48,36.45 36.828,56.02 67.519,85.56 0,0 -30.691,-29.54 0,0" id="path56" style="fill:#d12920;fill-opacity:1;fill-rule:evenodd;stroke:none"/></g></g><g transform="scale(1,-1)" id="text3801" style="font-size:250.84674072px;font-style:normal;font-weight:normal;line-height:125%;letter-spacing:0px;word-spacing:0px;fill:#7e8274;fill-opacity:1;stroke:none;font-family:Sans"><path d="m -1582.2458,-1095.2275 c 1.1432,-0.6532 2.1639,-0.9798 3.0621,-0.9798 l 2.8172,0 c 0.5715,0 1.5514,-0.041 2.9396,-0.1225 6.2875,-0.5716 10.0028,-1.1432 11.146,-1.7148 2.8579,-1.5514 5.3076,-4.2461 7.349,-8.0839 4.2461,-8.3289 9.023,-20.1281 14.3306,-35.3978 2.5313,-7.2673 4.1236,-11.6767 4.7769,-13.2283 2.0413,-4.8993 4.0011,-10.0436 5.8792,-15.4329 l 11.5135,-32.2133 c 1.7963,-5.0625 6.1241,-16.6576 12.9833,-34.7853 1.7147,-4.5726 3.7969,-10.6968 6.2466,-18.3726 l 3.5521,-0.245 4.2869,0.1225 c 3.5111,6.9409 6.614,14.4124 9.3088,22.4145 1.4697,4.2463 3.8785,10.5746 7.2265,18.985 l 18.6175,50.3408 9.9212,27.3139 c 5.2258,15.5147 8.6554,25.048 10.2887,28.6 1.6329,3.552 3.1436,5.8996 4.5318,7.0428 0.4082,0.3266 1.9392,0.8166 4.5932,1.4698 2.6536,0.6533 4.5113,1.1432 5.573,1.4698 3.756,1.0615 6.369,1.9598 7.839,2.6947 0.3264,0.8982 0.4897,1.5922 0.4899,2.0822 -2e-4,0.4083 -0.1227,1.0207 -0.3675,1.8372 -2.6131,0.082 -4.4504,0.1225 -5.5117,0.1225 -4.1646,0 -11.5136,-0.1225 -22.0471,-0.3674 l -12.2484,-0.3675 -14.8205,0.245 c -0.98,0 -1.9803,-0.061 -3.0009,-0.1837 -1.0208,-0.1225 -1.8986,-0.1838 -2.6334,-0.1838 l -2.6946,0 c -0.8983,-0.082 -1.7149,-0.3266 -2.4497,-0.7349 -10e-5,-1.1432 0.2041,-2.2455 0.6124,-3.307 0.9798,-0.49 1.878,-0.7758 2.6947,-0.8574 l 12.8608,-0.8574 c 3.3477,-0.1633 5.8791,-0.6124 7.594,-1.3473 0.4898,-1.4698 0.7347,-2.5722 0.7349,-3.3071 -2e-4,-1.4698 -1.0617,-5.2668 -3.1846,-11.391 -1.4699,-4.0827 -2.756,-7.9614 -3.8582,-11.6359 -1.1025,-3.6745 -5.4507,-15.7596 -13.0446,-36.2552 -3.348,-0.5715 -6.2876,-0.8573 -8.8188,-0.8574 l -26.2115,0.245 -7.7165,-0.1225 c -2.7764,0 -5.8384,0.2042 -9.1863,0.6124 -1.0616,2.4497 -1.7556,4.2053 -2.0822,5.2668 l -10.7786,33.683 c -4.5727,12.82 -6.8591,19.8832 -6.8591,21.1897 0,0.7349 0.3675,1.9598 1.1024,3.6745 1.7147,0.49 4.0011,0.9391 6.8591,1.3473 l 16.6578,1.4699 c 0.8981,0.7349 1.3472,1.3881 1.3473,1.9597 -1e-4,0.4083 -0.1226,1.0207 -0.3675,1.8372 -3.6745,0.082 -6.4917,0.1225 -8.4513,0.1225 -6.5326,0 -14.1265,-0.2041 -22.782,-0.6124 -4.0012,-0.1633 -6.8591,-0.245 -8.5739,-0.245 -1.7148,0 -4.6952,0.082 -8.9413,0.245 -2.7763,0.1633 -4.7769,0.245 -6.0017,0.245 -1.9597,0 -4.4911,-0.1225 -7.594,-0.3675 l 0,-0.7349 c 0,-0.5716 0.1633,-1.3473 0.4899,-2.3272 z m 58.4248,-73.4902 c 8.7371,0.49 18.6991,0.735 29.886,0.7349 6.3691,10e-5 11.9625,-0.2041 16.7803,-0.6124 -0.8167,-3.1845 -1.7557,-6.165 -2.8171,-8.9414 -5.3077,-14.208 -8.2474,-22.0469 -8.8188,-23.5168 l -11.1461,-28.2938 -1.2248,-2.2047 c -0.49,0.98 -2.2865,5.1853 -5.3893,12.6158 -5.226,12.7385 -8.9822,22.6596 -11.2685,29.7636 -1.0616,3.1847 -2.1639,6.3488 -3.3071,9.4925 -1.1432,3.1438 -1.8577,5.3485 -2.1434,6.6141 -0.2859,1.2658 -0.7146,2.5518 -1.2861,3.8582 z" id="path3841" style="font-variant:normal;font-stretch:normal;fill:#7e8274;font-family:Garamond;-inkscape-font-specification:Garamond"/><path d="m -1377.8204,-1083.2241 c -0.9799,-0.4899 -4.1236,-1.8372 -9.4312,-4.0419 -6.2059,-4.0012 -10.1253,-6.9816 -11.7585,-8.9413 -1.6331,-1.9598 -2.4496,-4.1236 -2.4496,-6.4917 0,-2.123 0.6124,-3.8378 1.8372,-5.1443 1.7964,-1.8781 5.3485,-3.6745 10.6561,-5.3893 5.3076,-1.7147 9.6762,-3.3887 13.1058,-5.0218 -1.0616,-0.7349 -2.7355,-1.7964 -5.0219,-3.1846 -12.1667,-7.5123 -18.25,-17.9234 -18.25,-31.2333 0,-10.9419 3.8582,-20.1894 11.5747,-27.7426 7.7164,-7.5531 17.6172,-11.3297 29.7023,-11.3298 5.4709,10e-5 10.4927,0.7759 15.0655,2.3272 2.6129,0.8167 6.4916,2.8581 11.636,6.1242 3.2661,2.0415 5.185,3.1847 5.7567,3.4296 1.3064,0.4083 2.7762,0.6125 4.4094,0.6124 1.3881,10e-5 4.7564,-0.347 10.1049,-1.0411 5.3484,-0.694 8.5125,-1.0411 9.4925,-1.0411 1.878,0 3.4294,0.3675 4.6544,1.1023 0.9797,1.6332 1.4697,4.3687 1.4698,8.2064 -10e-5,1.3066 -0.3472,2.2865 -1.0411,2.9396 -0.6942,0.6534 -1.6945,0.98 -3.0009,0.9799 -2.2864,10e-5 -6.063,-0.7144 -11.3297,-2.1435 -5.2669,-1.4289 -8.4719,-2.1434 -9.615,-2.1434 -0.4084,0 -1.1841,0.082 -2.3272,0.2449 3.5111,7.0225 5.2667,13.4325 5.2668,19.23 -10e-5,5.7976 -1.8373,11.7993 -5.5118,18.0051 -3.6745,6.2059 -8.7372,10.9419 -15.1879,14.2081 -6.4509,3.2663 -12.9834,4.8994 -19.5974,4.8994 -0.49,0 -1.8782,-0.041 -4.1645,-0.1225 -7.5124,0 -14.4123,1.8781 -20.6997,5.6342 -3.0213,1.8781 -4.532,3.6337 -4.5319,5.2668 -10e-5,1.7148 1.4697,3.3888 4.4094,5.0219 7.7572,4.1644 22.4553,6.5733 44.0941,7.2265 9.3904,0.3266 16.6986,1.674 21.9246,4.042 5.2259,2.368 9.1658,5.8588 11.8197,10.4723 2.6537,4.6136 3.9806,9.37 3.9807,14.2694 -10e-5,6.6141 -2.2456,12.7383 -6.7366,18.3726 -4.4912,5.6342 -11.3094,10.2069 -20.4548,13.7181 -9.1455,3.5112 -19.6383,5.2668 -31.4783,5.2668 -13.065,0 -23.1495,-1.5923 -30.2535,-4.7768 -7.1041,-3.1847 -12.1463,-6.655 -15.1267,-10.4111 -2.9805,-3.7563 -4.4707,-7.4716 -4.4707,-11.1461 0,-3.1846 1.6331,-7.1653 4.8994,-11.9421 3.2662,-4.7769 10.0436,-9.7783 20.3323,-15.0043 3.0212,-1.5515 5.1034,-2.6538 6.2466,-3.3071 z m -4.8993,-69.9382 c 0,7.3491 1.1023,13.4937 3.3071,18.4338 2.2046,4.9402 5.2259,8.6147 9.0637,11.0236 3.8378,2.4088 7.7165,3.6133 11.636,3.6132 7.104,10e-5 13.0036,-2.715 17.6989,-8.1451 4.6951,-5.4301 7.0427,-13.6978 7.0428,-24.803 -10e-5,-11.1868 -2.4497,-19.6994 -7.349,-25.5379 -4.8994,-5.8383 -10.8195,-8.7575 -17.7601,-8.7576 -7.7574,10e-5 -13.6366,2.7764 -17.6377,8.3289 -4.0012,5.5527 -6.0017,14.1674 -6.0017,25.8441 z m -4.042,113.42 c 7.4307,5.7158 16.8211,8.5738 28.1713,8.5738 8.0839,0 16.1474,-1.2861 24.1905,-3.8582 8.043,-2.5722 13.9223,-6.2467 17.6377,-11.0235 3.7152,-4.7769 5.5729,-9.2884 5.573,-13.5345 -10e-5,-2.613 -0.6533,-5.2056 -1.9597,-7.7777 -1.3066,-2.5722 -3.0826,-4.6952 -5.3281,-6.3692 -2.2456,-1.6739 -5.2056,-3.0008 -8.8801,-3.9807 -2.613,-0.7349 -6.3284,-1.2657 -11.146,-1.5923 -13.7182,-1.0615 -22.1288,-1.5923 -25.2316,-1.5923 -8.7372,0 -16.5354,2.9396 -23.3944,8.8189 -5.3077,4.5727 -7.9615,10.0436 -7.9615,16.4128 0,5.8792 2.7763,11.1868 8.3289,15.9229 z" id="path3843" style="font-variant:normal;font-stretch:normal;fill:#7e8274;font-family:Garamond;-inkscape-font-specification:Garamond"/><path d="m -1201.6887,-1155.9794 -49.116,0.3674 -9.3088,0 c -3.7562,10e-5 -7.594,0.1634 -11.5135,0.49 -0.7349,2.4497 -1.1023,4.1237 -1.1023,5.0218 l 0.1225,1.2248 0,1.2249 -0.1225,6.0017 c 0,4.981 1.5718,11.0848 4.7156,18.3113 3.1437,7.2266 7.6348,12.7383 13.4732,16.5353 5.8384,3.797 13.1262,5.818 21.8634,6.063 4.6543,-0.245 8.3696,-0.8166 11.146,-1.7148 2.7762,-0.8982 6.6957,-2.9804 11.7584,-6.2467 l 8.8189,-7.2265 0.7349,4.8993 c -10e-5,0.5716 -0.041,1.1841 -0.1225,1.8373 -3.6746,4.6544 -8.329,8.7372 -13.9632,12.2484 -5.6343,3.5112 -11.3502,6.0833 -17.1477,7.7164 -2.7763,0.7349 -7.3491,1.1024 -13.7182,1.1024 -5.7976,0 -11.5135,-1.184 -17.1477,-3.552 -8.3289,-3.5929 -14.8818,-9.37 -19.6586,-17.3315 -4.7769,-7.9614 -7.1653,-17.6172 -7.1653,-28.9674 0,-3.5928 0.6736,-8.2064 2.021,-13.8407 1.3473,-5.6341 3.7765,-11.6358 7.2877,-18.0051 2.368,-4.3277 5.2668,-7.8797 8.6964,-10.6561 4.8993,-3.9193 9.1862,-6.6548 12.8608,-8.2064 5.3076,-2.2046 11.4726,-3.3069 18.495,-3.307 7.594,1e-4 13.7998,1.3882 18.6176,4.1644 6.5323,3.6746 11.4113,8.4107 14.6368,14.2081 3.2253,5.7977 4.838,11.1053 4.8381,15.9229 z m -68.346,-4.4094 5.7568,0 c 4.1644,0 16.5761,-0.6532 37.235,-1.9598 3.2662,-0.1632 5.2668,-0.4898 6.0017,-0.9798 1.4698,-1.5514 2.2047,-2.9396 2.2047,-4.1645 0,-2.5312 -0.8166,-5.4096 -2.4496,-8.6351 -1.6332,-3.2253 -4.1441,-5.7158 -7.5328,-7.4715 -3.3888,-1.7555 -7.3287,-2.6333 -11.8197,-2.6334 -9.4721,10e-5 -17.0661,3.5521 -22.7819,10.6561 -4.4095,5.3894 -6.6142,10.452 -6.6142,15.188 z" id="path3845" style="font-variant:normal;font-stretch:normal;fill:#7e8274;font-family:Garamond;-inkscape-font-specification:Garamond"/><path d="m -1189.6853,-1095.2275 c 2.0414,-0.5716 4.4094,-1.0615 7.104,-1.4698 5.1444,-0.7349 8.2269,-1.5923 9.2476,-2.5721 1.0206,-0.9799 1.531,-3.2254 1.531,-6.7366 l 0.245,-4.4094 c 0.082,-1.6331 0.1224,-3.7154 0.1225,-6.2467 l -0.245,-37.6025 c 0,-5.0626 -0.6533,-8.3289 -1.9597,-9.7987 -2.2048,-2.2863 -6.2875,-3.8786 -12.2484,-4.7769 l 0,-4.4094 c 5.9609,-1.6331 10.5336,-3.7561 13.7182,-6.3692 4.6543,-3.6744 8.5738,-8.6554 11.7584,-14.943 l 4.1645,0.1225 c 0.2449,3.8379 0.3674,6.5734 0.3674,8.2064 l 0,8.0839 0.1225,2.2047 c 0.9798,-0.6531 2.123,-1.4697 3.4295,-2.4496 4.8993,-3.6745 9.9212,-6.6753 15.0655,-9.0026 5.1443,-2.3271 9.717,-3.9398 13.7182,-4.8381 2.5313,-0.6531 5.3892,-0.9798 8.5739,-0.9799 6.6957,10e-5 12.4524,1.7966 17.2702,5.3893 4.8176,3.593 7.9409,7.8186 9.37,12.6771 1.4289,4.8586 2.1434,14.5144 2.1435,28.9674 l 0,18.495 c -10e-5,0.49 -0.061,2.1231 -0.1838,4.8994 -0.1225,2.7763 -0.1838,5.9609 -0.1837,9.5537 -10e-5,5.7159 0.2449,9.3496 0.7349,10.9011 0.4082,1.0615 1.4697,2.123 3.1846,3.1846 7.8388,1.0615 12.4116,2.3272 13.7182,3.797 l 0,0.9798 c -10e-5,0.8166 -0.2451,1.8373 -0.7349,3.0621 l -2.3272,0 -16.1679,-0.1225 -15.9229,0.245 c -5.8793,0.1633 -11.3094,0.1225 -16.2903,-0.1225 l -0.7349,-2.5721 c -10e-5,-0.49 0.2857,-1.1432 0.8574,-1.9598 2.2046,-0.9798 5.3075,-1.6331 9.3087,-1.9597 2.368,-0.1633 4.0011,-0.4083 4.8994,-0.7349 0.8981,-0.3266 2.0005,-0.9799 3.3071,-1.9598 0.9797,-1.9597 1.4697,-3.5928 1.4698,-4.8993 -10e-5,-0.5716 -0.082,-1.7148 -0.245,-3.4296 -0.2451,-3.7561 -0.4084,-13.1057 -0.4899,-28.0487 l 0,-6.3692 0.2449,-9.7987 c -10e-5,-10.5335 -2.1231,-17.8009 -6.3691,-21.8021 -4.2462,-4.0011 -9.9213,-6.0016 -17.0253,-6.0017 -5.471,10e-5 -10.8194,1.2045 -16.0453,3.6133 -5.2261,2.4089 -10.2887,6.0222 -15.188,10.8398 -0.1634,3.9195 -0.245,7.2674 -0.245,10.0436 l 0.3675,27.069 c -10e-5,14.1264 0.2041,22.7819 0.6124,25.9665 0.1632,1.3065 0.449,2.2047 0.8574,2.6947 0.6532,0.6532 1.9597,1.184 3.9194,1.5922 1.9597,0.4083 4.2257,0.9799 6.7979,1.7148 2.5721,0.7349 4.2665,1.184 5.0831,1.3473 1.633,0.4083 2.7354,1.2249 3.307,2.4497 l -0.1225,2.4497 -12.8607,0 -26.4565,-0.3675 c -6.1242,0.1633 -10.0029,0.245 -11.636,0.245 l -3.0621,0 -0.245,-1.5923 c 0,-0.5716 0.1225,-1.3881 0.3675,-2.4497 z" id="path3847" style="font-variant:normal;font-stretch:normal;fill:#7e8274;font-family:Garamond;-inkscape-font-specification:Garamond"/><path d="m -968.60215,-1113.7225 0.12248,7.9614 c -6.36924,6.7775 -12.65674,11.5135 -18.8625,14.2081 -6.20591,2.6947 -13.51413,4.042 -21.92463,4.042 -9.1455,0 -17.3927,-2.3884 -24.7417,-7.1653 -7.349,-4.7768 -13.0037,-11.5339 -16.964,-20.271 -3.9603,-8.7372 -5.9405,-17.311 -5.9404,-25.7216 -10e-5,-9.2271 2.3884,-17.9438 7.1653,-26.1503 4.7768,-8.2063 11.1051,-14.3305 18.9849,-18.3726 7.8798,-4.0419 17.7805,-6.0628 29.7024,-6.0629 11.43169,10e-5 20.12803,1.9598 26.08899,5.8792 3.3478,2.2864 5.02174,5.2261 5.02184,8.8188 -10e-5,2.6131 -0.85748,4.777 -2.57216,6.4917 -1.71487,1.7148 -3.91957,2.5722 -6.61412,2.5721 -4.08288,10e-5 -8.57395,-2.5312 -13.47322,-7.594 -3.02133,-3.1028 -5.7568,-5.2463 -8.20643,-6.4304 -2.4497,-1.1839 -5.1852,-1.7759 -8.2064,-1.776 -7.2674,10e-5 -13.3099,2.9805 -18.1276,8.9413 -6.6958,8.4923 -10.0437,19.1484 -10.0437,31.9683 0,13.2283 3.4296,23.7619 10.2887,31.6008 6.859,7.839 14.8613,11.7584 24.0068,11.7584 6.36908,0 12.02374,-1.0411 16.964,-3.1233 4.94009,-2.0822 10.71724,-5.9404 17.33145,-11.5747 z" id="path3849" style="font-variant:normal;font-stretch:normal;fill:#7e8274;font-family:Garamond;-inkscape-font-specification:Garamond"/><path d="m -944.71778,-1241.8405 c -2e-5,-2.6945 1.04109,-5.0217 3.12334,-6.9816 2.0822,-1.9596 4.59311,-2.9394 7.53275,-2.9396 3.02123,2e-4 5.67504,1.1025 7.96144,3.3071 2.28633,2.2048 3.42951,4.5728 3.42955,7.104 -4e-5,2.5315 -1.14322,4.9199 -3.42955,7.1653 -2.2864,2.2457 -4.94021,3.3685 -7.96144,3.3683 -3.02129,2e-4 -5.55262,-1.0205 -7.594,-3.0621 -2.04141,-2.0412 -3.06211,-4.695 -3.06209,-7.9614 z m -10.28864,63.4466 0.12249,-3.5521 c 5.30762,-1.5513 8.16557,-2.4495 8.57386,-2.6946 2.93959,-1.3064 6.0221,-3.307 9.24753,-6.0017 3.22537,-2.6946 5.94043,-5.7158 8.14517,-9.0638 0.97983,-0.1632 1.75556,-0.2449 2.32719,-0.245 l 1.4698,0.1225 c 0.32659,3.9196 0.4899,6.7775 0.48994,8.5739 -4e-5,0.4083 -0.0817,2.2456 -0.24497,5.5117 l 0,6.4917 0.12248,35.2753 -0.36745,37.3575 c -0.0817,3.0213 0.40824,5.124 1.46981,6.308 1.06148,1.184 4.20523,2.5109 9.43125,3.9807 3.26618,0.8982 5.71585,1.6739 7.34902,2.3272 0.24491,0.5716 0.3674,1.0615 0.36745,1.4698 -5e-5,0.4899 -0.20419,1.1023 -0.61242,1.8372 -3.18462,-0.082 -7.26741,-0.2858 -12.24837,-0.6124 -6.77747,-0.5716 -11.26854,-0.8574 -13.47321,-0.8574 -1.06156,0 -7.59402,0.2042 -19.59741,0.6124 -2.44968,0.082 -4.8177,0.2858 -7.10405,0.6125 -0.40829,0 -1.06153,-0.1225 -1.95974,-0.3675 -0.40828,-0.5716 -0.61242,-1.0615 -0.61242,-1.4698 0,-1.1432 0.77573,-2.0414 2.32719,-2.6946 0.32662,-0.1633 4.49106,-1.1024 12.49334,-2.8172 2.61297,-0.4899 4.32774,-1.3064 5.14432,-2.4496 1.38813,-1.7148 2.0822,-4.4503 2.08222,-8.2064 0.16329,-6.2875 0.24495,-23.5169 0.24497,-51.6882 -2e-5,-5.6342 -0.24499,-9.1454 -0.7349,-10.5336 -0.4083,-0.9798 -1.49024,-2.1026 -3.24582,-3.3683 -1.75562,-1.2656 -5.49137,-2.5517 -11.20727,-3.8582 z" id="path3851" style="font-variant:normal;font-stretch:normal;fill:#7e8274;font-family:Garamond;-inkscape-font-specification:Garamond"/><path d="m -805.20879,-1107.9658 c 0.48984,1.0616 0.7348,1.8373 0.7349,2.3272 -10e-5,1.2249 -0.97997,3.3887 -2.93961,6.4917 -2.53142,4.0828 -5.34855,7.0632 -8.45138,8.9413 -1.95982,1.2248 -4.65446,1.8372 -8.08392,1.8372 -5.8793,0 -10.28871,-1.7964 -13.22825,-5.3893 -1.79649,-2.123 -3.06216,-5.92 -3.797,-11.3909 l -13.71818,9.5537 c -4.81774,2.7763 -8.49225,4.5319 -11.02354,5.2668 -4.08282,1.0615 -8.98217,1.5923 -14.69805,1.5923 -4.16447,0 -7.45111,-1.2453 -9.85994,-3.7358 -2.40886,-2.4905 -3.61328,-5.6955 -3.61327,-9.615 -10e-6,-5.6342 3.44994,-12.3708 10.34988,-20.2098 6.89989,-7.8389 16.26989,-14.2489 28.11002,-19.2299 8.32884,-3.5112 13.43232,-5.7567 15.31047,-6.7366 0.16325,-2.6946 0.2449,-5.6342 0.24497,-8.8189 -7e-5,-10.3702 -1.44946,-17.3926 -4.34818,-21.0672 -2.89884,-3.6744 -7.04287,-5.5116 -12.4321,-5.5117 -5.63429,10e-5 -10.90109,2.2048 -15.8004,6.6141 -3.0213,2.7764 -5.30766,8.0023 -6.85909,15.6779 -0.48996,2.1231 -1.42901,4.4095 -2.81713,6.8591 -3.51122,2.2864 -6.32834,3.4296 -8.45138,3.4295 -1.79644,10e-5 -3.42956,-0.5307 -4.89935,-1.5922 -0.81657,-0.5716 -1.22485,-1.2248 -1.22484,-1.9598 -10e-6,-2.123 2.26594,-6.9202 6.79785,-14.3918 4.53188,-7.4715 10.24778,-13.0649 17.14773,-16.7803 6.89988,-3.7152 12.92199,-5.5729 18.06635,-5.573 7.02235,10e-5 12.24832,0.6329 15.67792,1.8985 3.42948,1.2657 6.45074,3.4909 9.0638,6.6753 2.61291,3.1847 4.2052,6.6551 4.77687,10.4112 0.32654,1.7965 0.48985,8.2065 0.48993,19.2299 l -0.36745,19.4749 0.12249,14.2082 c -8e-5,1.8781 -0.0409,3.4703 -0.12249,4.7768 -0.0817,2.3681 -0.12256,4.1237 -0.12248,5.2668 -8e-5,2.6947 0.77565,4.8586 2.32719,6.4917 1.55138,1.6331 3.38863,2.4496 5.51177,2.4496 3.10283,0 5.75664,-1.5514 7.96144,-4.6543 l 1.46981,-1.9598 c 0.40818,-0.2449 1.30639,-0.5307 2.69464,-0.8574 z m -36.01022,-3.552 c 0.57152,-10.3703 0.85732,-17.6785 0.85738,-21.9246 -6e-5,-2.2047 -0.12255,-5.1851 -0.36745,-8.9413 -5.471,1.9598 -11.26856,4.9402 -17.39269,8.9413 -6.12423,4.0012 -10.98275,8.6147 -14.57557,13.8407 -2.61302,3.7562 -3.91951,7.3082 -3.91948,10.6561 -3e-5,3.1845 1.08191,5.8384 3.24582,7.9614 2.16384,2.1231 4.8789,3.1846 8.14517,3.1846 2.53129,0 5.59338,-0.8982 9.18628,-2.6947 4.73599,-2.368 9.67616,-6.0425 14.82054,-11.0235 z" id="path3853" style="font-variant:normal;font-stretch:normal;fill:#7e8274;font-family:Garamond;-inkscape-font-specification:Garamond"/><path d="m -735.76051,-1229.7146 5.02184,-18.4951 c 0.32661,-2.4495 0.77572,-4.0214 1.34732,-4.7156 0.57158,-0.6939 1.22482,-1.041 1.95974,-1.0411 1.46979,10e-5 3.14373,1.7557 5.02183,5.2668 1.38813,2.5315 2.53131,4.1442 3.42955,4.8381 0.89819,0.6942 2.20468,1.1637 3.91948,1.4086 l 1.22484,-0.1225 5.2668,0.4899 28.90617,0.3675 34.17296,-0.1225 10.04367,0 18.98499,-0.3675 c 0.81643,2e-4 1.83713,0.082 3.06209,0.245 5.55246,0.4901 8.98201,0.735 10.28864,0.7349 1.2247,10e-5 2.20456,-0.4081 2.93961,-1.2248 0.24482,-0.3265 1.59214,-3.1028 4.04196,-8.3289 1.06138,-2.3679 2.36787,-3.5519 3.91948,-3.5521 0.6531,2e-4 1.46966,0.1635 2.44968,0.49 0.40812,1.6332 0.61226,3.103 0.61241,4.4094 l -0.12248,4.8993 0.12248,10.4112 c -1.5e-4,2.5314 -0.20429,10.697 -0.61241,24.4967 -1.5e-4,0.8983 -0.16347,1.7149 -0.48994,2.4497 -0.89836,0.5717 -1.67409,0.8575 -2.32719,0.8574 -0.65339,1e-4 -1.22498,-0.3061 -1.71477,-0.9187 -0.49008,-0.6123 -1.1025,-2.5108 -1.83726,-5.6955 -1.63326,-7.3489 -3.67465,-12.6157 -6.12419,-15.8004 -1.63325,-2.0412 -3.98085,-3.511 -7.04281,-4.4094 -3.06223,-0.898 -10.39083,-1.3472 -21.98584,-1.3473 -9.30886,10e-5 -16.20878,0.1635 -20.69975,0.4899 -0.1634,3.2664 -0.24506,6.2468 -0.24497,8.9414 l 0.97987,76.0624 c -9e-5,3.0213 -0.1634,8.7372 -0.48994,17.1477 l 0.12249,16.2903 -0.12249,9.0638 c -9e-5,2.858 0.48985,4.8994 1.46981,6.1242 0.97978,1.2249 3.63359,2.4089 7.96144,3.552 7.51223,1.8781 12.53406,3.0213 15.0655,3.4296 1.55135,0.1633 2.81702,0.4899 3.797,0.9799 l 0,3.6745 -17.39269,-0.49 c -9.55383,-0.082 -16.73953,-0.2858 -21.55714,-0.6124 l -17.88263,0.8574 -13.10577,0.7349 c -3.67455,0 -5.92008,-0.082 -6.7366,-0.245 l -1.71477,-0.7349 c 0.16327,-1.878 0.53072,-3.0825 1.10235,-3.6132 0.57155,-0.5308 2.08218,-0.9595 4.5319,-1.2861 3.4295,-0.4899 7.47146,-1.3677 12.12589,-2.6334 4.65432,-1.2657 7.71641,-2.5517 9.18628,-3.8582 0.81649,-0.7349 1.38808,-1.9598 1.71477,-3.6746 0.73484,-3.5928 1.10229,-10.656 1.10236,-21.1897 l 0,-20.8222 -0.48994,-45.4415 -0.48993,-9.7987 -0.12249,-32.7031 c -5.14437,-0.5715 -11.71766,-0.8573 -19.71988,-0.8574 -11.75848,10e-5 -18.90336,0.735 -21.43466,2.2047 -4.00116,2.2865 -9.96203,8.9823 -17.88263,20.0873 -2.61299,4.1646 -4.89935,6.2468 -6.85909,6.2467 l -1.10235,-0.245 c -0.32662,-0.4898 -0.48994,-0.9389 -0.48994,-1.3473 0,-0.9797 0.65325,-3.9194 1.95974,-8.8188 1.63312,-6.2874 2.61299,-10.5335 2.93961,-12.7383 z" id="path3855" style="font-variant:normal;font-stretch:normal;fill:#7e8274;font-family:Garamond;-inkscape-font-specification:Garamond"/><path d="m -580.81856,-1090.9405 -0.48993,-1.5923 c -10e-6,-0.5716 0.36744,-1.429 1.10235,-2.5722 l 7.22654,-1.4698 10.16615,-1.8372 c 0.81654,-0.4083 1.38813,-0.9799 1.71478,-1.7148 0.48991,-1.0615 0.73487,-4.2053 0.7349,-9.4313 -3e-5,-27.7629 -0.16334,-43.7878 -0.48994,-48.0748 -0.32664,-4.2869 -1.06155,-7.002 -2.2047,-8.1452 -1.14321,-1.1431 -4.08281,-2.0413 -8.81883,-2.6947 -2.77631,-0.4082 -4.98102,-0.9389 -6.61413,-1.5922 l 0.48994,-3.6746 c 8.57384,-3.5111 14.33058,-6.5323 17.27021,-9.0638 4.08276,-3.6744 7.55313,-8.4921 10.41112,-14.453 l 4.16445,0.1224 c 0.48989,4.0829 0.73486,13.1467 0.7349,27.1914 l -0.12249,2.0823 c -4e-5,0.49 0.0816,1.2657 0.24497,2.3272 3.10288,-5.6342 6.98153,-10.8194 11.63596,-15.5555 l 2.81713,-2.8171 c 1.14312,-1.3064 2.24547,-2.3271 3.30706,-3.0621 5.71584,-3.4294 9.96194,-5.1442 12.73831,-5.1443 3.59278,10e-5 6.53239,1.2045 8.81883,3.6133 2.28628,2.4089 3.42946,5.3689 3.42954,8.88 -8e-5,2.7764 -0.81664,4.9403 -2.44967,6.4917 -2.20479,2.0414 -4.73612,3.0621 -7.59399,3.0621 -1.30657,0 -3.87873,-0.694 -7.71648,-2.0823 -3.83789,-1.388 -6.36922,-2.0821 -7.59399,-2.0822 -2.28642,10e-5 -3.87871,0.3675 -4.77687,1.1024 -2.28642,1.7965 -5.06271,5.471 -8.3289,11.0235 -2.53137,4.1645 -3.79703,8.0023 -3.79699,11.5135 l 0.61242,20.2098 0.24496,24.2518 c 0.24493,2.7763 0.57155,4.5727 0.97987,5.3893 0.32658,0.5716 1.14314,1.2656 2.44968,2.0822 8.81877,0.7349 14.04474,1.2657 15.67792,1.5923 1.14312,0.082 2.0005,0.1633 2.57216,0.2449 3.51113,0.082 5.96081,0.5716 7.34902,1.4699 0.73483,0.4082 1.10229,1.0207 1.10236,1.8372 -7e-5,0.4899 -0.3267,1.1432 -0.97987,1.9597 l -13.5957,-0.1224 -5.14432,-0.1225 -7.47151,0.1225 -12.49334,0 -6.73661,0.3674 z" id="path3857" style="font-variant:normal;font-stretch:normal;fill:#7e8274;font-family:Garamond;-inkscape-font-specification:Garamond"/><path d="m -484.66883,-1241.8405 c -2e-5,-2.6945 1.04109,-5.0217 3.12334,-6.9816 2.0822,-1.9596 4.59311,-2.9394 7.53275,-2.9396 3.02123,2e-4 5.67504,1.1025 7.96144,3.3071 2.28633,2.2048 3.42951,4.5728 3.42955,7.104 -4e-5,2.5315 -1.14322,4.9199 -3.42955,7.1653 -2.2864,2.2457 -4.94021,3.3685 -7.96144,3.3683 -3.02129,2e-4 -5.55262,-1.0205 -7.594,-3.0621 -2.04141,-2.0412 -3.06211,-4.695 -3.06209,-7.9614 z m -10.28864,63.4466 0.12249,-3.5521 c 5.30762,-1.5513 8.16557,-2.4495 8.57386,-2.6946 2.93959,-1.3064 6.0221,-3.307 9.24753,-6.0017 3.22537,-2.6946 5.94043,-5.7158 8.14517,-9.0638 0.97983,-0.1632 1.75556,-0.2449 2.32719,-0.245 l 1.4698,0.1225 c 0.32659,3.9196 0.4899,6.7775 0.48994,8.5739 -4e-5,0.4083 -0.0817,2.2456 -0.24497,5.5117 l 0,6.4917 0.12248,35.2753 -0.36745,37.3575 c -0.0817,3.0213 0.40824,5.124 1.46981,6.308 1.06148,1.184 4.20523,2.5109 9.43125,3.9807 3.26618,0.8982 5.71585,1.6739 7.34902,2.3272 0.24491,0.5716 0.3674,1.0615 0.36745,1.4698 -5e-5,0.4899 -0.20419,1.1023 -0.61242,1.8372 -3.18462,-0.082 -7.26741,-0.2858 -12.24837,-0.6124 -6.77747,-0.5716 -11.26854,-0.8574 -13.47321,-0.8574 -1.06156,0 -7.59402,0.2042 -19.59741,0.6124 -2.44968,0.082 -4.8177,0.2858 -7.10405,0.6125 -0.40829,0 -1.06153,-0.1225 -1.95974,-0.3675 -0.40828,-0.5716 -0.61242,-1.0615 -0.61242,-1.4698 0,-1.1432 0.77573,-2.0414 2.32719,-2.6946 0.32662,-0.1633 4.49106,-1.1024 12.49334,-2.8172 2.61297,-0.4899 4.32774,-1.3064 5.14432,-2.4496 1.38813,-1.7148 2.0822,-4.4503 2.08222,-8.2064 0.16329,-6.2875 0.24495,-23.5169 0.24497,-51.6882 -2e-5,-5.6342 -0.24499,-9.1454 -0.7349,-10.5336 -0.4083,-0.9798 -1.49024,-2.1026 -3.24582,-3.3683 -1.75562,-1.2656 -5.49137,-2.5517 -11.20727,-3.8582 z" id="path3859" style="font-variant:normal;font-stretch:normal;fill:#7e8274;font-family:Garamond;-inkscape-font-specification:Garamond"/><path d="m -440.57457,-1245.2701 0,-0.6124 c 0,-0.8164 0.32662,-1.9596 0.97987,-3.4295 8.90048,-1.5513 18.37254,-3.9194 28.41624,-7.1041 0.57155,-0.082 1.46977,-0.1223 2.69464,-0.1225 0.40824,1.3067 0.61238,2.1641 0.61242,2.5722 l 0,36.5001 -0.12249,11.636 0.12249,12.9833 -0.24497,10.5336 c -4e-5,0.4084 0.0816,1.7965 0.24497,4.1644 l 10.04367,-3.797 c 1.06147,-0.3265 4.57267,-1.388 10.5336,-3.1845 7.59393,-1.2248 12.00334,-1.8372 13.22825,-1.8373 8.1655,10e-5 15.51452,1.3066 22.04707,3.9195 4.00104,1.6332 7.96135,4.3482 11.88093,8.1452 3.91937,3.797 6.81815,7.8186 8.69634,12.0646 3.26612,7.7574 4.89924,14.4531 4.89935,20.0873 -1.1e-4,8.9006 -0.5717,15.0656 -1.71477,18.4951 -2.77641,8.1656 -6.16512,14.6164 -10.16615,19.3524 -4.00124,4.7361 -9.59466,8.778 -16.78028,12.1259 -7.18579,3.3479 -14.8206,5.0218 -22.90446,5.0218 -7.43074,0 -14.45313,-1.3881 -21.0672,-4.1644 -6.61417,-2.7763 -10.3295,-4.1644 -11.14603,-4.1645 -2.53136,10e-5 -5.75676,3.3479 -9.67621,10.0437 l -3.55203,-0.1225 c -0.32665,-5.4709 -0.48996,-12.2075 -0.48994,-20.2098 l 0.24497,-18.2501 -0.12248,-9.3087 0.24496,-26.7015 -0.24496,-5.1443 0.48993,-12.6158 0,-10.7786 0.12248,-4.4094 c -2e-5,-0.8981 -0.0408,-4.4502 -0.12248,-10.6561 l 0,-7.349 c 0.24495,-14.208 -0.36747,-22.4144 -1.83726,-24.6193 -2.36803,-3.511 -7.47152,-6.5323 -15.31047,-9.0638 z m 58.17979,150.7775 c 12.41161,0 21.86327,-3.4907 28.35499,-10.4723 6.49154,-6.9816 9.73736,-17.3723 9.73746,-31.1721 -1e-4,-12.6566 -3.67461,-22.9044 -11.02354,-30.7435 -7.34911,-7.8388 -16.4129,-11.7583 -27.19139,-11.7584 -7.83902,10e-5 -14.41231,1.2657 -19.71989,3.797 -3.18462,1.5515 -4.96063,2.9805 -5.32804,4.2869 -0.36749,1.3066 -0.55122,10.0438 -0.55118,26.2115 -4e-5,19.1892 0.40824,30.4169 1.22484,33.6831 1.38811,5.0627 3.91944,8.6963 7.59399,10.901 5.79751,3.5112 11.43176,5.2668 16.90276,5.2668 z" id="path3861" style="font-variant:normal;font-stretch:normal;fill:#7e8274;font-family:Garamond;-inkscape-font-specification:Garamond"/><path d="m -312.824,-1187.4577 9.18628,0 4.04196,0.2449 3.18458,-0.2449 c 8.41052,10e-5 13.63649,0.082 15.67792,0.2449 l 0.12249,2.3272 c -4e-5,11.5136 -0.16335,22.6596 -0.48994,33.4381 -0.245,6.3692 -0.36749,10.0029 -0.36745,10.901 -4e-5,14.3715 0.46949,23.3536 1.40856,26.9465 0.93901,3.5928 3.14371,6.4712 6.61413,8.6351 3.47032,2.1639 7.65518,3.2458 12.55458,3.2458 5.96082,0 11.65631,-1.2452 17.08649,-3.7358 5.43003,-2.4904 10.064,-5.5321 13.9019,-9.125 0.40819,-3.1029 0.61233,-6.5324 0.61242,-10.2886 -9e-5,-12.1667 0.1224,-20.3731 0.36745,-24.6193 0.0816,-2.5312 0.1224,-4.7359 0.12249,-6.6141 -9e-5,-13.2282 -0.65334,-20.6997 -1.95974,-22.4145 -1.30658,-1.7147 -6.28758,-3.0212 -14.94302,-3.9195 -2.85802,-0.3265 -4.94025,-0.6123 -6.24667,-0.8574 -0.65331,-1.0614 -0.97994,-1.878 -0.97987,-2.4497 l 0.36745,-1.3473 c 2.12298,-0.2449 4.2052,-0.3673 6.24667,-0.3674 l 19.47492,0.2449 c 6.94065,-0.1632 10.61516,-0.2448 11.02354,-0.2449 0.89811,10e-5 1.75549,0.041 2.57215,0.1224 l 0.24497,8.9414 c -0.57169,12.4117 -0.89832,27.763 -0.97987,46.0539 l -0.24497,9.9211 0.48994,16.6578 c 0.7348,1.3065 1.38804,2.0823 1.95974,2.3272 0.97976,0.4083 2.98033,0.6125 6.0017,0.6124 l 1.10236,0 c 1.06141,10e-5 4.08267,0.245 9.0638,0.7349 0.0815,1.0616 0.12236,1.8373 0.12248,2.3272 l 0,1.3474 c -10.94199,2.368 -19.80164,4.736 -26.57898,7.104 -2.69473,0.8982 -4.98109,1.5515 -6.85909,1.9598 -0.40836,-2.858 -0.6125,-4.6136 -0.61242,-5.2668 l 0,-9.9212 c -8e-5,-0.4083 -0.0409,-1.5106 -0.12248,-3.3071 -1.06161,0.7349 -2.28645,1.6331 -3.67451,2.6947 -6.45089,4.981 -13.26915,9.1862 -20.45479,12.6158 -4.81775,2.368 -9.47213,3.552 -13.96315,3.552 -8.5739,0 -15.55547,-3.1846 -20.94472,-9.5537 -5.47097,-6.3692 -8.20643,-17.2294 -8.20641,-32.5807 -2e-5,-0.8165 0.0408,-2.2863 0.12248,-4.4094 0.3266,-3.9195 0.48991,-6.6549 0.48993,-8.2064 -2e-5,-0.5716 -0.0408,-2.368 -0.12248,-5.3893 -0.0817,-1.3065 -0.1225,-2.4496 -0.12248,-3.4296 -2e-5,-0.7348 0.0408,-2.3883 0.12248,-4.9606 0.0816,-2.572 0.12246,-4.3889 0.12248,-5.4505 -2e-5,-1.3881 -0.0408,-2.6129 -0.12248,-3.6745 l -0.24497,-6.4916 0.12249,-3.4296 c -2e-5,-1.3064 -0.65327,-2.4904 -1.95974,-3.552 -5.14433,-1.3881 -8.51263,-2.1842 -10.10491,-2.3884 -1.5923,-0.2041 -3.00086,-0.5511 -4.22569,-1.0412 z" id="path3863" style="font-variant:normal;font-stretch:normal;fill:#7e8274;font-family:Garamond;-inkscape-font-specification:Garamond"/><path d="m -158.86198,-1212.3219 3.797,0.1224 0.48993,11.636 -0.24496,15.0655 c 1.55142,0.082 2.53128,0.1226 2.93961,0.1225 2.123,1e-4 6.16496,-0.1632 12.12589,-0.4899 3.83776,-0.2449 7.51227,-0.3674 11.02354,-0.3675 1.63305,10e-5 4.08272,0.041 7.34902,0.1225 0.16324,1.6332 0.2449,2.9397 0.24497,3.9195 -7e-5,1.0616 -0.24504,2.7355 -0.7349,5.0218 l -2.08223,0 -18.98498,0.6124 -9.43125,0.245 -2.20471,0.245 c -0.65328,2.0414 -0.97991,4.4095 -0.97987,7.104 l 0.36745,18.3726 -0.24496,32.3357 c -4e-5,8.4922 1.10231,14.1265 3.30706,16.9027 2.12301,2.858 5.30758,4.287 9.55373,4.287 2.123,0 6.12413,-0.6533 12.00341,-1.9598 1.79636,-0.4082 4.20521,-1.7556 7.22654,-4.0419 l 1.10236,0 c 0.73483,0 1.32683,0.2245 1.77601,0.6736 0.44903,0.4492 0.67359,1.0412 0.67366,1.7761 l -0.12248,0.8573 c -3.51127,3.8379 -7.53282,6.6346 -12.06465,8.3902 -4.53196,1.7556 -10.55407,2.6334 -18.06636,2.6334 -5.30767,0 -9.69666,-1.2249 -13.167,-3.6745 -3.4704,-2.4497 -5.69552,-5.3485 -6.67537,-8.6964 -0.97989,-3.3479 -1.46982,-10.6561 -1.4698,-21.9246 l 0.48993,-27.5588 -0.12248,-13.2283 0,-4.8993 c -2e-5,-2.2863 -0.0817,-4.5727 -0.24497,-6.8591 l -2.08222,-0.1225 -10.04367,0.3675 -0.97987,0.1224 c -0.89822,10e-5 -1.57188,-0.204 -2.02098,-0.6124 -0.44912,-0.4082 -0.67367,-0.8981 -0.67366,-1.4698 -1e-5,-0.9798 0.3062,-1.7759 0.91862,-2.3884 0.61242,-0.6123 2.47008,-1.5718 5.57302,-2.8784 2.12303,-0.8981 4.59312,-2.5925 7.41026,-5.0831 2.81711,-2.4904 5.20554,-5.2462 7.1653,-8.2676 0.97984,-1.633 2.36799,-4.7359 4.16445,-9.3088 1.30646,-3.3478 2.28633,-5.7158 2.93961,-7.104 z" id="path3865" style="font-variant:normal;font-stretch:normal;fill:#7e8274;font-family:Garamond;-inkscape-font-specification:Garamond"/><path d="m -21.312671,-1107.9658 c 0.489835,1.0616 0.734802,1.8373 0.734903,2.3272 -1.01e-4,1.2249 -0.97997,3.3887 -2.93961,6.4917 -2.531426,4.0828 -5.34855,7.0632 -8.45138,8.9413 -1.959827,1.2248 -4.654467,1.8372 -8.083928,1.8372 -5.879296,0 -10.288706,-1.7964 -13.228246,-5.3893 -1.796494,-2.123 -3.062159,-5.92 -3.796997,-11.3909 l -13.718181,9.5537 c -4.81774,2.7763 -8.492249,4.5319 -11.023538,5.2668 -4.082827,1.0615 -8.982173,1.5923 -14.698052,1.5923 -4.16447,0 -7.45111,-1.2453 -9.85994,-3.7358 -2.40886,-2.4905 -3.61328,-5.6955 -3.61327,-9.615 -1e-5,-5.6342 3.44994,-12.3708 10.349875,-20.2098 6.89989,-7.8389 16.269888,-14.2489 28.110023,-19.2299 8.328838,-3.5112 13.432322,-5.7567 15.31047,-6.7366 0.163246,-2.6946 0.244902,-5.6342 0.244967,-8.8189 -6.5e-5,-10.3702 -1.449455,-17.3926 -4.348173,-21.0672 -2.89884,-3.6744 -7.04287,-5.5116 -12.432102,-5.5117 -5.634296,10e-5 -10.901092,2.2048 -15.800405,6.6141 -3.021295,2.7764 -5.307657,8.0023 -6.859091,15.6779 -0.48996,2.1231 -1.429001,4.4095 -2.817126,6.8591 -3.511218,2.2864 -6.328348,3.4296 -8.451378,3.4295 -1.79644,10e-5 -3.42956,-0.5307 -4.89935,-1.5922 -0.81657,-0.5716 -1.22485,-1.2248 -1.22484,-1.9598 -10e-6,-2.123 2.26594,-6.9202 6.79785,-14.3918 4.53188,-7.4715 10.247782,-13.0649 17.147725,-16.7803 6.89988,-3.7152 12.921992,-5.5729 18.066355,-5.573 7.022345,10e-5 12.248314,0.6329 15.677921,1.8985 3.429476,1.2657 6.45074,3.4909 9.063799,6.6753 2.612909,3.1847 4.205196,6.6551 4.776866,10.4112 0.326544,1.7965 0.489855,8.2065 0.489935,19.2299 l -0.367451,19.4749 0.122484,14.2082 c -8e-5,1.8781 -0.04091,3.4703 -0.122484,4.7768 -0.08174,2.3681 -0.122563,4.1237 -0.122484,5.2668 -7.9e-5,2.6947 0.77565,4.8586 2.327192,6.4917 1.551377,1.6331 3.388632,2.4496 5.511769,2.4496 3.102831,0 5.756643,-1.5514 7.961444,-4.6543 l 1.469805,-1.9598 c 0.408182,-0.2449 1.306396,-0.5307 2.694643,-0.8574 z m -36.010225,-3.552 c 0.571526,-10.3703 0.857322,-17.6785 0.857386,-21.9246 -6.4e-5,-2.2047 -0.122548,-5.1851 -0.367451,-8.9413 -5.471,1.9598 -11.268559,4.9402 -17.392694,8.9413 -6.124229,4.0012 -10.982746,8.6147 -14.575568,13.8407 -2.613016,3.7562 -3.919508,7.3082 -3.91948,10.6561 -2.8e-5,3.1845 1.081911,5.8384 3.24582,7.9614 2.163846,2.1231 4.8789,3.1846 8.14517,3.1846 2.531289,0 5.59338,-0.8982 9.186282,-2.6947 4.735985,-2.368 9.676158,-6.0425 14.820535,-11.0235 z" id="path3867" style="font-variant:normal;font-stretch:normal;fill:#7e8274;font-family:Garamond;-inkscape-font-specification:Garamond"/><path d="m -13.963639,-1090.9405 -0.489936,-1.5923 c -4e-6,-0.5716 0.367447,-1.429 1.102354,-2.5722 l 7.2265422,-1.4698 10.1661521,-1.8372 c 0.8165345,-0.4083 1.3881248,-0.9799 1.7147726,-1.7148 0.4899098,-1.0615 0.7348771,-4.2053 0.7349026,-9.4313 -2.55e-5,-27.7629 -0.163337,-43.7878 -0.4899351,-48.0748 -0.326648,-4.2869 -1.0615498,-7.002 -2.2047077,-8.1452 -1.1432034,-1.1431 -4.08281065,-2.0413 -8.8188307,-2.6947 -2.7763097,-0.4082 -4.981015,-0.9389 -6.614123,-1.5922 l 0.489935,-3.6746 c 8.5738468,-3.5111 14.3305778,-6.5323 17.2702102,-9.0638 4.0827628,-3.6744 7.5531328,-8.4921 10.4111198,-14.453 l 4.164448,0.1224 c 0.489895,4.0829 0.734862,13.1467 0.734902,27.1914 l -0.122484,2.0823 c -4e-5,0.49 0.08162,1.2657 0.244968,2.3272 3.102878,-5.6342 6.981527,-10.8194 11.635957,-15.5555 l 2.817127,-2.8171 c 1.143125,-1.3064 2.245478,-2.3271 3.307061,-3.0621 5.715845,-3.4294 9.961944,-5.1442 12.738311,-5.1443 3.592783,10e-5 6.53239,1.2045 8.818831,3.6133 2.286281,2.4089 3.429462,5.3689 3.429545,8.88 -8.3e-5,2.7764 -0.816641,4.9403 -2.449675,6.4917 -2.204786,2.0414 -4.736115,3.0621 -7.593993,3.0621 -1.306565,0 -3.878722,-0.694 -7.716477,-2.0823 -3.837886,-1.388 -6.369215,-2.0821 -7.593993,-2.0822 -2.286419,10e-5 -3.878707,0.3675 -4.776867,1.1024 -2.286414,1.7965 -5.06271,5.471 -8.328895,11.0235 -2.531374,4.1645 -3.797038,8.0023 -3.796997,11.5135 l 0.612419,20.2098 0.244967,24.2518 c 0.244926,2.7763 0.571549,4.5727 0.97987,5.3893 0.326581,0.5716 1.143138,1.2656 2.449676,2.0822 8.818776,0.7349 14.044745,1.2657 15.677921,1.5923 1.14312,0.082 2.000505,0.1633 2.572159,0.2449 3.511134,0.082 5.960807,0.5716 7.349025,1.4699 0.734831,0.4082 1.102282,1.0207 1.102354,1.8372 -7.2e-5,0.4899 -0.326695,1.1432 -0.97987,1.9597 l -13.595697,-0.1224 -5.144318,-0.1225 -7.471509,0.1225 -12.493344,0 -6.7366068,0.3674 z" id="path3869" style="font-variant:normal;font-stretch:normal;fill:#7e8274;font-family:Garamond;-inkscape-font-specification:Garamond"/><path d="m 82.186029,-1241.8405 c -1.7e-5,-2.6945 1.041093,-5.0217 3.123336,-6.9816 2.082201,-1.9596 4.593116,-2.9394 7.532751,-2.9396 3.021235,2e-4 5.675047,1.1025 7.961444,3.3071 2.28633,2.2048 3.42951,4.5728 3.42955,7.104 -4e-5,2.5315 -1.14322,4.9199 -3.42955,7.1653 -2.286397,2.2457 -4.940209,3.3685 -7.961444,3.3683 -3.021291,2e-4 -5.55262,-1.0205 -7.593993,-3.0621 -2.041415,-2.0412 -3.062111,-4.695 -3.062094,-7.9614 z m -10.288636,63.4466 0.122484,-3.5521 c 5.307617,-1.5513 8.165568,-2.4495 8.573863,-2.6946 2.939592,-1.3064 6.022096,-3.307 9.247524,-6.0017 3.225377,-2.6946 5.940431,-5.7158 8.14517,-9.0638 0.979836,-0.1632 1.755566,-0.2449 2.327196,-0.245 l 1.4698,0.1225 c 0.32659,3.9196 0.4899,6.7775 0.48994,8.5739 -4e-5,0.4083 -0.0817,2.2456 -0.24497,5.5117 l 0,6.4917 0.12248,35.2753 -0.36745,37.3575 c -0.0817,3.0213 0.40824,5.124 1.46981,6.308 1.06148,1.184 4.20523,2.5109 9.43125,3.9807 3.26618,0.8982 5.71585,1.6739 7.34902,2.3272 0.24491,0.5716 0.3674,1.0615 0.36745,1.4698 -5e-5,0.4899 -0.20419,1.1023 -0.61242,1.8372 -3.18463,-0.082 -7.26741,-0.2858 -12.24837,-0.6124 -6.77747,-0.5716 -11.26854,-0.8574 -13.473216,-0.8574 -1.061555,0 -7.594015,0.2042 -19.597402,0.6124 -2.449682,0.082 -4.817699,0.2858 -7.104058,0.6125 -0.408281,0 -1.061528,-0.1225 -1.95974,-0.3675 -0.40828,-0.5716 -0.612419,-1.0615 -0.612419,-1.4698 0,-1.1432 0.77573,-2.0414 2.327191,-2.6946 0.326621,-0.1633 4.491065,-1.1024 12.493344,-2.8172 2.612969,-0.4899 4.32774,-1.3064 5.144318,-2.4496 1.388128,-1.7148 2.082202,-4.4503 2.082224,-8.2064 0.163289,-6.2875 0.244945,-23.5169 0.244967,-51.6882 -2.2e-5,-5.6342 -0.244989,-9.1454 -0.734902,-10.5336 -0.408301,-0.9798 -1.490239,-2.1026 -3.24582,-3.3683 -1.755617,-1.2656 -5.491368,-2.5517 -11.207264,-3.8582 z" id="path3871" style="font-variant:normal;font-stretch:normal;fill:#7e8274;font-family:Garamond;-inkscape-font-specification:Garamond"/><path d="m 221.69502,-1107.9658 c 0.48983,1.0616 0.7348,1.8373 0.7349,2.3272 -1e-4,1.2249 -0.97997,3.3887 -2.93961,6.4917 -2.53142,4.0828 -5.34855,7.0632 -8.45138,8.9413 -1.95982,1.2248 -4.65446,1.8372 -8.08393,1.8372 -5.87929,0 -10.2887,-1.7964 -13.22824,-5.3893 -1.7965,-2.123 -3.06216,-5.92 -3.797,-11.3909 l -13.71818,9.5537 c -4.81774,2.7763 -8.49225,4.5319 -11.02354,5.2668 -4.08282,1.0615 -8.98217,1.5923 -14.69805,1.5923 -4.16447,0 -7.45111,-1.2453 -9.85994,-3.7358 -2.40886,-2.4905 -3.61328,-5.6955 -3.61327,-9.615 -1e-5,-5.6342 3.44994,-12.3708 10.34988,-20.2098 6.89989,-7.8389 16.26988,-14.2489 28.11002,-19.2299 8.32884,-3.5112 13.43232,-5.7567 15.31047,-6.7366 0.16324,-2.6946 0.2449,-5.6342 0.24497,-8.8189 -7e-5,-10.3702 -1.44946,-17.3926 -4.34818,-21.0672 -2.89884,-3.6744 -7.04287,-5.5116 -12.4321,-5.5117 -5.6343,10e-5 -10.90109,2.2048 -15.8004,6.6141 -3.0213,2.7764 -5.30766,8.0023 -6.8591,15.6779 -0.48996,2.1231 -1.429,4.4095 -2.81712,6.8591 -3.51122,2.2864 -6.32835,3.4296 -8.45138,3.4295 -1.79644,10e-5 -3.42956,-0.5307 -4.89935,-1.5922 -0.81657,-0.5716 -1.22485,-1.2248 -1.22484,-1.9598 -1e-5,-2.123 2.26594,-6.9202 6.79785,-14.3918 4.53188,-7.4715 10.24778,-13.0649 17.14773,-16.7803 6.89988,-3.7152 12.92199,-5.5729 18.06635,-5.573 7.02235,10e-5 12.24831,0.6329 15.67792,1.8985 3.42948,1.2657 6.45074,3.4909 9.0638,6.6753 2.61291,3.1847 4.2052,6.6551 4.77687,10.4112 0.32654,1.7965 0.48985,8.2065 0.48993,19.2299 l -0.36745,19.4749 0.12248,14.2082 c -8e-5,1.8781 -0.0409,3.4703 -0.12248,4.7768 -0.0817,2.3681 -0.12256,4.1237 -0.12248,5.2668 -8e-5,2.6947 0.77565,4.8586 2.32719,6.4917 1.55138,1.6331 3.38863,2.4496 5.51177,2.4496 3.10283,0 5.75664,-1.5514 7.96144,-4.6543 l 1.46981,-1.9598 c 0.40818,-0.2449 1.30639,-0.5307 2.69464,-0.8574 z m -36.01023,-3.552 c 0.57153,-10.3703 0.85733,-17.6785 0.85739,-21.9246 -6e-5,-2.2047 -0.12255,-5.1851 -0.36745,-8.9413 -5.471,1.9598 -11.26856,4.9402 -17.39269,8.9413 -6.12423,4.0012 -10.98275,8.6147 -14.57557,13.8407 -2.61302,3.7562 -3.91951,7.3082 -3.91948,10.6561 -3e-5,3.1845 1.08191,5.8384 3.24582,7.9614 2.16384,2.1231 4.8789,3.1846 8.14517,3.1846 2.53129,0 5.59338,-0.8982 9.18628,-2.6947 4.73598,-2.368 9.67616,-6.0425 14.82053,-11.0235 z" id="path3873" style="font-variant:normal;font-stretch:normal;fill:#7e8274;font-family:Garamond;-inkscape-font-specification:Garamond"/></g></g></g></svg>